<?xml version="1.0" encoding="UTF-8"?>
<svg width="752pt" height="752pt" version="1.1" viewBox="0 0 752 752" xmlns="http://www.w3.org/2000/svg">
 <path d="m376 177.1c-109.68 0-198.9 89.223-198.9 198.9 0 109.68 89.223 198.91 198.9 198.91 109.68 0 198.9-89.223 198.9-198.91s-89.223-198.9-198.9-198.9zm0 28.414c94.328 0 170.49 76.164 170.49 170.49 0 94.328-76.164 170.49-170.49 170.49-94.328 0-170.49-76.164-170.49-170.49s76.164-170.49 170.49-170.49zm-37.293 80.508c-10.305 0.24609-19.273 9.0391-19.535 21.605v136.6c0.35156 16.758 16.195 26.922 30.043 18.941l111.29-68.52c6.0625-3.7383 10.211-10.609 10.211-18.645s-4.1484-14.906-10.211-18.648l-111.29-68.52c-3.4609-1.9961-7.0742-2.8945-10.508-2.8125z"/>
</svg>
