<?xml version="1.0" encoding="UTF-8"?>
<svg width="301px" height="47px" viewBox="0 0 301 47" version="1.1" xmlns="http://www.w3.org/2000/svg" xmlns:xlink="http://www.w3.org/1999/xlink">
    <title>Slice</title>
    <g id="Page-1" stroke="none" stroke-width="1" fill="none" fill-rule="evenodd">
        <g id="Slice">
            <g id="Synappser" transform="translate(68.661290, 2.112903)" fill-rule="nonzero">
                <path d="M11.0806452,0 C12.7580645,0 14.0967742,0.161290323 15.0967742,0.483870968 C16.0967742,0.806451613 17.1129032,1.27419355 18.1451613,1.88709677 C18.5,2.08064516 18.8145161,2.24193548 19.0887097,2.37096774 C19.3629032,2.5 19.5967742,2.56451613 19.7903226,2.56451613 C20.0806452,2.56451613 20.3064516,2.39516129 20.4677419,2.05645161 C20.6290323,1.71774194 20.7580645,1.17741935 20.8548387,0.435483871 L21.9677419,0.435483871 C21.8064516,2.59677419 21.7258065,6.27419355 21.7258065,11.4677419 L20.6129032,11.4677419 C20.483871,9.72580645 20.0887097,8.06451613 19.4274194,6.48387097 C18.766129,4.90322581 17.8306452,3.62096774 16.6209677,2.63709677 C15.4112903,1.65322581 14,1.16129032 12.3870968,1.16129032 C10.8064516,1.16129032 9.52419355,1.60483871 8.54032258,2.49193548 C7.55645161,3.37903226 7.06451613,4.58064516 7.06451613,6.09677419 C7.06451613,7.22580645 7.30645161,8.20967742 7.79032258,9.0483871 C8.27419355,9.88709677 8.9516129,10.6532258 9.82258065,11.3467742 C10.6935484,12.0403226 12.0322581,12.983871 13.8387097,14.1774194 L15.3870968,15.2419355 C17.2903226,16.5 18.7903226,17.5967742 19.8870968,18.5322581 C20.983871,19.4677419 21.8790323,20.5564516 22.5725806,21.7983871 C23.266129,23.0403226 23.6129032,24.483871 23.6129032,26.1290323 C23.6129032,28.1935484 23.0806452,29.9274194 22.016129,31.3306452 C20.9516129,32.733871 19.5080645,33.7903226 17.6854839,34.5 C15.8629032,35.2096774 13.8387097,35.5645161 11.6129032,35.5645161 C9.80645161,35.5645161 8.30645161,35.4032258 7.11290323,35.0806452 C5.91935484,34.7580645 4.82258065,34.3225806 3.82258065,33.7741935 C3.11290323,33.3225806 2.56451613,33.0967742 2.17741935,33.0967742 C1.88709677,33.0967742 1.66129032,33.266129 1.5,33.6048387 C1.33870968,33.9435484 1.20967742,34.483871 1.11290323,35.2258065 L4.4408921e-15,35.2258065 C0.129032258,33.1935484 0.193548387,28.8387097 0.193548387,22.1612903 L1.30645161,22.1612903 C1.53225806,25.7741935 2.33870968,28.7016129 3.72580645,30.9435484 C5.11290323,33.1854839 7.24193548,34.3064516 10.1129032,34.3064516 C11.8548387,34.3064516 13.2903226,33.8387097 14.4193548,32.9032258 C15.5483871,31.9677419 16.1129032,30.6290323 16.1129032,28.8870968 C16.1129032,27.0806452 15.5322581,25.5322581 14.3709677,24.2419355 C13.2096774,22.9516129 11.3709677,21.5 8.85483871,19.8870968 C6.91935484,18.6290323 5.37096774,17.5322581 4.20967742,16.5967742 C3.0483871,15.6612903 2.09677419,14.5564516 1.35483871,13.2822581 C0.612903226,12.0080645 0.241935484,10.5322581 0.241935484,8.85483871 C0.241935484,6.91935484 0.733870968,5.28225806 1.71774194,3.94354839 C2.7016129,2.60483871 4.01612903,1.61290323 5.66129032,0.967741935 C7.30645161,0.322580645 9.11290323,0 11.0806452,0 Z" id="Path" fill="#276BB0"></path>
                <path d="M46.4516129,10.016129 C48.0645161,10.016129 49.3064516,9.96774194 50.1774194,9.87096774 L50.1774194,10.8387097 C49.5,11.0322581 48.8951613,11.4435484 48.3629032,12.0725806 C47.8306452,12.7016129 47.3225806,13.6774194 46.8387097,15 L38.1774194,39.3387097 C37.5322581,41.016129 36.8225806,42.1612903 36.0483871,42.7741935 C35.1129032,43.5806452 33.7096774,43.983871 31.8387097,43.983871 C30.483871,43.983871 29.266129,43.6532258 28.1854839,42.9919355 C27.1048387,42.3306452 26.5645161,41.3709677 26.5645161,40.1129032 C26.5645161,39.1129032 26.9193548,38.3145161 27.6290323,37.7177419 C28.3387097,37.1209677 29.2741935,36.8225806 30.4354839,36.8225806 C31.5322581,36.8225806 32.4112903,37.0887097 33.0725806,37.6209677 C33.733871,38.1532258 34.0645161,38.9032258 34.0645161,39.8709677 C34.0645161,40.5483871 33.8548387,41.1693548 33.4354839,41.733871 C33.016129,42.2983871 32.4193548,42.7258065 31.6451613,43.016129 C31.8709677,43.0483871 32.2419355,43.0645161 32.7580645,43.0645161 C34.7580645,43.0645161 36.2258065,41.7903226 37.1612903,39.2419355 L37.9354839,36.9193548 L27.6774194,13.5967742 C27.1612903,12.5 26.6612903,11.7741935 26.1774194,11.4193548 C25.6935484,11.0645161 25.1935484,10.8870968 24.6774194,10.8870968 L24.6774194,9.87096774 C26.8064516,10.0645161 29.016129,10.1612903 31.3064516,10.1612903 C33.2096774,10.1612903 35.4516129,10.0645161 38.0322581,9.87096774 L38.0322581,10.8870968 C37,10.8870968 36.233871,10.9596774 35.733871,11.1048387 C35.233871,11.25 34.983871,11.6290323 34.983871,12.2419355 C34.983871,12.5967742 35.0967742,13.0483871 35.3225806,13.5967742 L41.2258065,27.8709677 L44.5645161,18.5806452 C45.0806452,17.0645161 45.3387097,15.7741935 45.3387097,14.7096774 C45.3387097,12.3548387 44.1451613,11.0645161 41.7580645,10.8387097 L41.7580645,9.87096774 C43.2741935,9.96774194 44.8387097,10.016129 46.4516129,10.016129 Z" id="Path" fill="#276BB0"></path>
                <path d="M69.6290323,9.19354839 C72.0806452,9.19354839 73.8548387,9.82258065 74.9516129,11.0806452 C75.5,11.6935484 75.8870968,12.483871 76.1129032,13.4516129 C76.3387097,14.4193548 76.4516129,15.7258065 76.4516129,17.3709677 L76.4516129,30.3870968 C76.4516129,31.7096774 76.6854839,32.6209677 77.1532258,33.1209677 C77.6209677,33.6209677 78.4193548,33.8709677 79.5483871,33.8709677 L79.5483871,34.8870968 C76.3225806,34.7580645 74.1935484,34.6935484 73.1612903,34.6935484 C72.1935484,34.6935484 70.0967742,34.7580645 66.8709677,34.8870968 L66.8709677,33.8709677 C67.8387097,33.8709677 68.516129,33.6209677 68.9032258,33.1209677 C69.2903226,32.6209677 69.483871,31.7096774 69.483871,30.3870968 L69.483871,15.3387097 C69.483871,14.016129 69.266129,13.016129 68.8306452,12.3387097 C68.3951613,11.6612903 67.6129032,11.3225806 66.483871,11.3225806 C65.1612903,11.3225806 64.0322581,11.8629032 63.0967742,12.9435484 C62.1612903,14.0241935 61.6935484,15.3548387 61.6935484,16.9354839 L61.6935484,30.3870968 C61.6935484,31.7096774 61.8870968,32.6209677 62.2741935,33.1209677 C62.6612903,33.6209677 63.3387097,33.8709677 64.3064516,33.8709677 L64.3064516,34.8870968 C61.3387097,34.7580645 59.3387097,34.6935484 58.3064516,34.6935484 C57.3387097,34.6935484 55.1129032,34.7580645 51.6290323,34.8870968 L51.6290323,33.8709677 C52.7903226,33.8709677 53.5967742,33.6209677 54.0483871,33.1209677 C54.5,32.6209677 54.7258065,31.7096774 54.7258065,30.3870968 L54.7258065,15.1451613 C54.7258065,13.6612903 54.5,12.5806452 54.0483871,11.9032258 C53.5967742,11.2258065 52.7903226,10.8870968 51.6290323,10.8870968 L51.6290323,9.87096774 C52.6612903,9.96774194 53.6612903,10.016129 54.6290323,10.016129 C57.5,10.016129 59.8548387,9.79032258 61.6935484,9.33870968 L61.6935484,13.6935484 C63.1451613,10.6935484 65.7903226,9.19354839 69.6290323,9.19354839 Z" id="Path" fill="#276BB0"></path>
                <path d="M88.016129,35.2258065 C85.9516129,35.2258065 84.3629032,34.6532258 83.25,33.5080645 C82.1370968,32.3629032 81.5806452,30.9193548 81.5806452,29.1774194 C81.5806452,27.7258065 81.9677419,26.5241935 82.7419355,25.5725806 C83.516129,24.6209677 84.4274194,23.8951613 85.4758065,23.3951613 C86.5241935,22.8951613 87.9032258,22.3709677 89.6129032,21.8225806 C91.3870968,21.2741935 92.6854839,20.7580645 93.5080645,20.2741935 C94.3306452,19.7903226 94.7419355,19.1129032 94.7419355,18.2419355 L94.7419355,14.4677419 C94.7419355,13.1129032 94.4274194,12.0564516 93.7983871,11.2983871 C93.1693548,10.5403226 92.1935484,10.1612903 90.8709677,10.1612903 C89.3225806,10.1612903 88.1451613,10.5483871 87.3387097,11.3225806 C88.2419355,11.6451613 88.9435484,12.1290323 89.4435484,12.7741935 C89.9435484,13.4193548 90.1935484,14.1774194 90.1935484,15.0483871 C90.1935484,16.1451613 89.8225806,17.016129 89.0806452,17.6612903 C88.3387097,18.3064516 87.4354839,18.6290323 86.3709677,18.6290323 C85.2419355,18.6290323 84.3709677,18.2741935 83.7580645,17.5645161 C83.1451613,16.8548387 82.8387097,15.9677419 82.8387097,14.9032258 C82.8387097,14 83.0564516,13.233871 83.4919355,12.6048387 C83.9274194,11.9758065 84.5967742,11.3870968 85.5,10.8387097 C86.3709677,10.3225806 87.4435484,9.91935484 88.7177419,9.62903226 C89.9919355,9.33870968 91.3870968,9.19354839 92.9032258,9.19354839 C94.483871,9.19354839 95.8548387,9.35483871 97.016129,9.67741935 C98.1774194,10 99.1451613,10.5483871 99.9193548,11.3225806 C100.629032,12.0322581 101.104839,12.9032258 101.346774,13.9354839 C101.58871,14.9677419 101.709677,16.3709677 101.709677,18.1451613 L101.709677,31.3064516 C101.709677,32.1129032 101.790323,32.6693548 101.951613,32.9758065 C102.112903,33.2822581 102.387097,33.4354839 102.774194,33.4354839 C103.225806,33.4354839 103.806452,33.1612903 104.516129,32.6129032 L105,33.4354839 C103.548387,34.6290323 101.774194,35.2258065 99.6774194,35.2258065 C97.9677419,35.2258065 96.7419355,34.8870968 96,34.2096774 C95.2580645,33.5322581 94.8709677,32.5645161 94.8387097,31.3064516 C94.0322581,32.5645161 93.0806452,33.5322581 91.983871,34.2096774 C90.8870968,34.8870968 89.5645161,35.2258065 88.016129,35.2258065 Z M91.4516129,32.1290323 C92.7419355,32.1290323 93.8387097,31.4677419 94.7419355,30.1451613 L94.7419355,20.2258065 C94.516129,20.6129032 94.2177419,20.9596774 93.8467742,21.266129 C93.4758065,21.5725806 92.9677419,21.9516129 92.3225806,22.4032258 C91.483871,23.016129 90.8064516,23.5483871 90.2903226,24 C89.7741935,24.4516129 89.3387097,25.0403226 88.983871,25.766129 C88.6290323,26.4919355 88.4516129,27.3709677 88.4516129,28.4032258 C88.4516129,29.6290323 88.7177419,30.5564516 89.25,31.1854839 C89.7822581,31.8145161 90.516129,32.1290323 91.4516129,32.1290323 Z" id="Shape" fill="#2F2F41"></path>
                <path d="M123.774194,9.19354839 C125.451613,9.19354839 126.943548,9.64516129 128.25,10.5483871 C129.556452,11.4516129 130.580645,12.8064516 131.322581,14.6129032 C132.064516,16.4193548 132.435484,18.6290323 132.435484,21.2419355 C132.435484,25.8548387 131.427419,29.3951613 129.41129,31.8629032 C127.395161,34.3306452 124.66129,35.5645161 121.209677,35.5645161 C120.241935,35.5645161 119.330645,35.4354839 118.475806,35.1774194 C117.620968,34.9193548 116.887097,34.5322581 116.274194,34.016129 L116.274194,38.8548387 C116.274194,40.2741935 116.629032,41.2580645 117.33871,41.8064516 C118.048387,42.3548387 119.145161,42.6290323 120.629032,42.6290323 L120.629032,43.6451613 L119.322581,43.5967742 C115.741935,43.5 113.467742,43.4516129 112.5,43.4516129 C111.532258,43.4516129 109.5,43.516129 106.403226,43.6451613 L106.403226,42.6290323 C107.467742,42.6290323 108.217742,42.3951613 108.653226,41.9274194 C109.08871,41.4596774 109.306452,40.5967742 109.306452,39.3387097 L109.306452,15.1451613 C109.306452,13.6612903 109.072581,12.5806452 108.604839,11.9032258 C108.137097,11.2258065 107.33871,10.8870968 106.209677,10.8870968 L106.209677,9.87096774 C107.241935,9.96774194 108.241935,10.016129 109.209677,10.016129 C112.016129,10.016129 114.370968,9.79032258 116.274194,9.33870968 L116.274194,13.7903226 C116.951613,12.3064516 117.935484,11.1693548 119.225806,10.3790323 C120.516129,9.58870968 122.032258,9.19354839 123.774194,9.19354839 Z M119.322581,34.2580645 C121.387097,34.2580645 122.870968,33.233871 123.774194,31.1854839 C124.677419,29.1370968 125.129032,26.1451613 125.129032,22.2096774 C125.129032,18.2741935 124.766129,15.4677419 124.040323,13.7903226 C123.314516,12.1129032 122.274194,11.2741935 120.919355,11.2741935 C119.822581,11.2741935 118.846774,11.6451613 117.991935,12.3870968 C117.137097,13.1290323 116.564516,14.1612903 116.274194,15.483871 L116.274194,32.9516129 C117.048387,33.8225806 118.064516,34.2580645 119.322581,34.2580645 Z" id="Shape" fill="#2F2F41"></path>
                <path d="M152.806452,9.19354839 C154.483871,9.19354839 155.975806,9.64516129 157.282258,10.5483871 C158.58871,11.4516129 159.612903,12.8064516 160.354839,14.6129032 C161.096774,16.4193548 161.467742,18.6290323 161.467742,21.2419355 C161.467742,25.8548387 160.459677,29.3951613 158.443548,31.8629032 C156.427419,34.3306452 153.693548,35.5645161 150.241935,35.5645161 C149.274194,35.5645161 148.362903,35.4354839 147.508065,35.1774194 C146.653226,34.9193548 145.919355,34.5322581 145.306452,34.016129 L145.306452,38.8548387 C145.306452,40.2741935 145.66129,41.2580645 146.370968,41.8064516 C147.080645,42.3548387 148.177419,42.6290323 149.66129,42.6290323 L149.66129,43.6451613 L148.354839,43.5967742 C144.774194,43.5 142.5,43.4516129 141.532258,43.4516129 C140.564516,43.4516129 138.532258,43.516129 135.435484,43.6451613 L135.435484,42.6290323 C136.5,42.6290323 137.25,42.3951613 137.685484,41.9274194 C138.120968,41.4596774 138.33871,40.5967742 138.33871,39.3387097 L138.33871,15.1451613 C138.33871,13.6612903 138.104839,12.5806452 137.637097,11.9032258 C137.169355,11.2258065 136.370968,10.8870968 135.241935,10.8870968 L135.241935,9.87096774 C136.274194,9.96774194 137.274194,10.016129 138.241935,10.016129 C141.048387,10.016129 143.403226,9.79032258 145.306452,9.33870968 L145.306452,13.7903226 C145.983871,12.3064516 146.967742,11.1693548 148.258065,10.3790323 C149.548387,9.58870968 151.064516,9.19354839 152.806452,9.19354839 Z M148.354839,34.2580645 C150.419355,34.2580645 151.903226,33.233871 152.806452,31.1854839 C153.709677,29.1370968 154.16129,26.1451613 154.16129,22.2096774 C154.16129,18.2741935 153.798387,15.4677419 153.072581,13.7903226 C152.346774,12.1129032 151.306452,11.2741935 149.951613,11.2741935 C148.854839,11.2741935 147.879032,11.6451613 147.024194,12.3870968 C146.169355,13.1290323 145.596774,14.1612903 145.306452,15.483871 L145.306452,32.9516129 C146.080645,33.8225806 147.096774,34.2580645 148.354839,34.2580645 Z" id="Shape" fill="#2F2F41"></path>
                <path d="M174.048387,9.19354839 C175.274194,9.19354839 176.403226,9.34677419 177.435484,9.65322581 C178.467742,9.95967742 179.258065,10.3064516 179.806452,10.6935484 C180.129032,10.9193548 180.419355,11.0322581 180.677419,11.0322581 C180.967742,11.0322581 181.217742,10.8790323 181.427419,10.5725806 C181.637097,10.266129 181.774194,9.82258065 181.83871,9.24193548 L182.854839,9.24193548 C182.725806,10.8870968 182.66129,13.7258065 182.66129,17.7580645 L181.645161,17.7580645 C181.354839,15.6290323 180.717742,13.8467742 179.733871,12.4112903 C178.75,10.9758065 177.322581,10.2580645 175.451613,10.2580645 C174.483871,10.2580645 173.685484,10.5322581 173.056452,11.0806452 C172.427419,11.6290323 172.112903,12.3870968 172.112903,13.3548387 C172.112903,14.4516129 172.483871,15.3951613 173.225806,16.1854839 C173.967742,16.9758065 175.129032,17.9354839 176.709677,19.0645161 L178.112903,20.0806452 C180.080645,21.5645161 181.532258,22.8870968 182.467742,24.0483871 C183.403226,25.2096774 183.870968,26.6612903 183.870968,28.4032258 C183.870968,29.8225806 183.459677,31.0806452 182.637097,32.1774194 C181.814516,33.2741935 180.709677,34.1129032 179.322581,34.6935484 C177.935484,35.2741935 176.403226,35.5645161 174.725806,35.5645161 C172.951613,35.5645161 171.435484,35.2258065 170.177419,34.5483871 C169.145161,34.0322581 168.403226,33.6935484 167.951613,33.5322581 C167.629032,33.4354839 167.346774,33.5403226 167.104839,33.8467742 C166.862903,34.1532258 166.677419,34.6129032 166.548387,35.2258065 L165.532258,35.2258065 C165.66129,33.3870968 165.725806,30.1612903 165.725806,25.5483871 L166.741935,25.5483871 C167.387097,31.483871 169.564516,34.4516129 173.274194,34.4516129 C174.209677,34.4516129 175.008065,34.1693548 175.669355,33.6048387 C176.330645,33.0403226 176.66129,32.1774194 176.66129,31.016129 C176.66129,30.1129032 176.459677,29.3064516 176.056452,28.5967742 C175.653226,27.8870968 175.145161,27.2580645 174.532258,26.7096774 C173.919355,26.1612903 173,25.4032258 171.774194,24.4354839 C170.322581,23.2741935 169.217742,22.3387097 168.459677,21.6290323 C167.701613,20.9193548 167.056452,20.0806452 166.524194,19.1129032 C165.991935,18.1451613 165.725806,17.0645161 165.725806,15.8709677 C165.725806,13.8064516 166.532258,12.1774194 168.145161,10.983871 C169.758065,9.79032258 171.725806,9.19354839 174.048387,9.19354839 Z" id="Path" fill="#2F2F41"></path>
                <path d="M201.048387,31.5967742 C203.693548,31.5967742 205.822581,30.3064516 207.435484,27.7258065 L208.306452,28.016129 C207.66129,30.1129032 206.508065,31.8951613 204.846774,33.3629032 C203.185484,34.8306452 201.112903,35.5645161 198.629032,35.5645161 C195.209677,35.5645161 192.491935,34.4758065 190.475806,32.2983871 C188.459677,30.1209677 187.451613,26.9032258 187.451613,22.6451613 C187.451613,18.2903226 188.532258,14.9596774 190.693548,12.6532258 C192.854839,10.3467742 195.725806,9.19354839 199.306452,9.19354839 C205.370968,9.19354839 208.403226,12.7741935 208.403226,19.9354839 L194.806452,19.9354839 C194.774194,20.4193548 194.758065,21.1774194 194.758065,22.2096774 C194.758065,24.3387097 195.056452,26.1129032 195.653226,27.5322581 C196.25,28.9516129 197.024194,29.983871 197.975806,30.6290323 C198.927419,31.2741935 199.951613,31.5967742 201.048387,31.5967742 Z M199.016129,10.2096774 C197.854839,10.2096774 196.895161,10.9274194 196.137097,12.3629032 C195.379032,13.7983871 194.903226,16.016129 194.709677,19.016129 L202.306452,19.016129 C202.370968,16.4677419 202.120968,14.3629032 201.556452,12.7016129 C200.991935,11.0403226 200.145161,10.2096774 199.016129,10.2096774 Z" id="Shape" fill="#276BB0"></path>
                <path d="M227.564516,9.19354839 C229.016129,9.19354839 230.112903,9.62903226 230.854839,10.5 C231.596774,11.3709677 231.967742,12.4193548 231.967742,13.6451613 C231.967742,14.8387097 231.620968,15.8145161 230.927419,16.5725806 C230.233871,17.3306452 229.322581,17.7096774 228.193548,17.7096774 C227.096774,17.7096774 226.225806,17.4274194 225.580645,16.8629032 C224.935484,16.2983871 224.612903,15.5483871 224.612903,14.6129032 C224.612903,13.0645161 225.322581,11.8064516 226.741935,10.8387097 C226.612903,10.8064516 226.419355,10.7903226 226.16129,10.7903226 C225.83871,10.7903226 225.580645,10.8225806 225.387097,10.8870968 C224.16129,11.0806452 223.120968,11.8225806 222.266129,13.1129032 C221.41129,14.4032258 220.983871,15.7258065 220.983871,17.0806452 L220.983871,29.9032258 C220.983871,31.3870968 221.346774,32.4193548 222.072581,33 C222.798387,33.5806452 223.951613,33.8709677 225.532258,33.8709677 L225.532258,34.8870968 C225.080645,34.8870968 224.709677,34.8709677 224.419355,34.8387097 C221.129032,34.7419355 218.935484,34.6935484 217.83871,34.6935484 C216.967742,34.6935484 214.983871,34.7419355 211.887097,34.8387097 C211.629032,34.8709677 211.306452,34.8870968 210.919355,34.8870968 L210.919355,33.8709677 C212.080645,33.8709677 212.887097,33.6209677 213.33871,33.1209677 C213.790323,32.6209677 214.016129,31.7096774 214.016129,30.3870968 L214.016129,15.1451613 C214.016129,13.6612903 213.790323,12.5806452 213.33871,11.9032258 C212.887097,11.2258065 212.080645,10.8870968 210.919355,10.8870968 L210.919355,9.87096774 C211.951613,9.96774194 212.951613,10.016129 213.919355,10.016129 C216.790323,10.016129 219.145161,9.79032258 220.983871,9.33870968 L220.983871,13.8387097 C221.596774,12.4516129 222.483871,11.3306452 223.645161,10.4758065 C224.806452,9.62096774 226.112903,9.19354839 227.564516,9.19354839 Z" id="Path" fill="#276BB0"></path>
            </g>
            <g id="Cubes" stroke-width="2">
                <path d="M35,1.15470054 L42.660254,5.57735027 L42.660254,14.4226497 L35,18.8452995 L27.339746,14.4226497 L27.339746,5.57735027 L35,1.15470054 Z" id="Polygon" stroke="#2F2F41" fill="#2F2F41"></path>
                <path d="M43,14.1547005 L50.660254,18.5773503 L50.660254,27.4226497 L43,31.8452995 L35.339746,27.4226497 L35.339746,18.5773503 L43,14.1547005 Z" id="Polygon" stroke="#2F2F41" fill="#2F2F41"></path>
                <path d="M35,27.1547005 L42.660254,31.5773503 L42.660254,40.4226497 L35,44.8452995 L27.339746,40.4226497 L27.339746,31.5773503 L35,27.1547005 Z" id="Polygon" stroke="#2F2F41" fill="#2F2F41"></path>
                <path d="M18,27.1547005 L25.660254,31.5773503 L25.660254,40.4226497 L18,44.8452995 L10.339746,40.4226497 L10.339746,31.5773503 L18,27.1547005 Z" id="Polygon" stroke="#276BB0" fill="#276BB0" transform="translate(18.000000, 36.000000) scale(-1, 1) translate(-18.000000, -36.000000) "></path>
                <path d="M10,14.1547005 L17.660254,18.5773503 L17.660254,27.4226497 L10,31.8452995 L2.33974596,27.4226497 L2.33974596,18.5773503 L10,14.1547005 Z" id="Polygon" stroke="#276BB0" fill="#276BB0" transform="translate(10.000000, 23.000000) scale(-1, 1) translate(-10.000000, -23.000000) "></path>
                <path d="M18,1.15470054 L25.660254,5.57735027 L25.660254,14.4226497 L18,18.8452995 L10.339746,14.4226497 L10.339746,5.57735027 L18,1.15470054 Z" id="Polygon" stroke="#276BB0" fill="#276BB0" transform="translate(18.000000, 10.000000) scale(-1, 1) translate(-18.000000, -10.000000) "></path>
            </g>
        </g>
    </g>
</svg>