<?xml version="1.0" encoding="UTF-8"?>
<svg width="284px" height="282px" viewBox="0 0 284 282" version="1.1" xmlns="http://www.w3.org/2000/svg" xmlns:xlink="http://www.w3.org/1999/xlink">
    <title>Slice</title>
    <g id="Page-1" stroke="none" stroke-width="1" fill="none" fill-rule="evenodd">
        <g id="Slice" transform="translate(3.000000, 4.000000)">
            <g id="Stars" stroke="#000000" stroke-width="10">
                <path d="M138.534659,42.2446443 L124.335485,49.7095917 C123.846641,49.9665925 123.242013,49.778646 122.985013,49.2898014 C122.882673,49.095141 122.847359,48.8721729 122.884536,48.6554153 L125.596337,32.8444029 C125.651974,32.5200088 125.544426,32.1890086 125.30874,31.9592715 L113.821367,20.7618503 C113.425883,20.3763491 113.417791,19.7432358 113.803292,19.3477523 C113.956801,19.1902686 114.157943,19.0877815 114.37558,19.0561569 L130.250739,16.7493613 C130.576449,16.7020329 130.858015,16.4974635 131.003677,16.20232 L138.103264,1.81698575 C138.347686,1.32173209 138.947312,1.11839309 139.442566,1.36281539 C139.639778,1.46014562 139.799406,1.61977315 139.896736,1.81698575 L146.996323,16.20232 C147.141985,16.4974635 147.423551,16.7020329 147.749261,16.7493613 L163.62442,19.0561569 C164.170964,19.1355746 164.549646,19.6430174 164.470228,20.1895623 C164.438604,20.4071993 164.336117,20.6083417 164.178633,20.7618503 L152.69126,31.9592715 C152.455574,32.1890086 152.348026,32.5200088 152.403663,32.8444029 L155.115464,48.6554153 C155.208825,49.1997517 154.843238,49.7167076 154.298901,49.8100686 C154.082143,49.8472455 153.859175,49.8119308 153.664515,49.7095917 L139.465341,42.2446443 C139.174017,42.0914862 138.825983,42.0914862 138.534659,42.2446443 Z" id="Star"></path>
                <path d="M217.023512,74.7557916 L202.824338,82.220739 C202.335493,82.4777398 201.730866,82.2897933 201.473865,81.8009487 C201.371526,81.6062882 201.336212,81.3833202 201.373388,81.1665625 L204.085189,65.3555502 C204.140827,65.0311561 204.033279,64.7001559 203.797593,64.4704187 L192.31022,53.2729976 C191.914736,52.8874964 191.906644,52.2543831 192.292145,51.8588996 C192.445654,51.7014159 192.646796,51.5989287 192.864433,51.5673042 L208.739592,49.2605086 C209.065302,49.2131802 209.346868,49.0086108 209.49253,48.7134673 L216.592117,34.328133 C216.836539,33.8328794 217.436165,33.6295404 217.931418,33.8739627 C218.128631,33.9712929 218.288259,34.1309204 218.385589,34.328133 L225.485176,48.7134673 C225.630838,49.0086108 225.912403,49.2131802 226.238113,49.2605086 L242.113272,51.5673042 C242.659817,51.6467218 243.038499,52.1541647 242.959081,52.7007096 C242.927457,52.9183466 242.824969,53.119489 242.667486,53.2729976 L231.180113,64.4704187 C230.944427,64.7001559 230.836878,65.0311561 230.892516,65.3555502 L233.604317,81.1665625 C233.697678,81.710899 233.33209,82.2278549 232.787754,82.3212159 C232.570996,82.3583928 232.348028,82.3230781 232.153368,82.220739 L217.954194,74.7557916 C217.66287,74.6026335 217.314836,74.6026335 217.023512,74.7557916 Z" id="Star" transform="translate(217.488853, 60.511147) rotate(-360.000000) translate(-217.488853, -60.511147) "></path>
                <path d="M249.534659,153.244644 L235.335485,160.709592 C234.846641,160.966593 234.242013,160.778646 233.985013,160.289801 C233.882673,160.095141 233.847359,159.872173 233.884536,159.655415 L236.596337,143.844403 C236.651974,143.520009 236.544426,143.189009 236.30874,142.959271 L224.821367,131.76185 C224.425883,131.376349 224.417791,130.743236 224.803292,130.347752 C224.956801,130.190269 225.157943,130.087781 225.37558,130.056157 L241.250739,127.749361 C241.576449,127.702033 241.858015,127.497463 242.003677,127.20232 L249.103264,112.816986 C249.347686,112.321732 249.947312,112.118393 250.442566,112.362815 C250.639778,112.460146 250.799406,112.619773 250.896736,112.816986 L257.996323,127.20232 C258.141985,127.497463 258.423551,127.702033 258.749261,127.749361 L274.62442,130.056157 C275.170964,130.135575 275.549646,130.643017 275.470228,131.189562 C275.438604,131.407199 275.336117,131.608342 275.178633,131.76185 L263.69126,142.959271 C263.455574,143.189009 263.348026,143.520009 263.403663,143.844403 L266.115464,159.655415 C266.208825,160.199752 265.843238,160.716708 265.298901,160.810069 C265.082143,160.847245 264.859175,160.811931 264.664515,160.709592 L250.465341,153.244644 C250.174017,153.091486 249.825983,153.091486 249.534659,153.244644 Z" id="Star" transform="translate(250.000000, 139.000000) rotate(-360.000000) translate(-250.000000, -139.000000) "></path>
                <path d="M217.023512,231.733497 L202.824338,239.198444 C202.335493,239.455445 201.730866,239.267499 201.473865,238.778654 C201.371526,238.583994 201.336212,238.361026 201.373388,238.144268 L204.085189,222.333256 C204.140827,222.008862 204.033279,221.677861 203.797593,221.448124 L192.31022,210.250703 C191.914736,209.865202 191.906644,209.232089 192.292145,208.836605 C192.445654,208.679121 192.646796,208.576634 192.864433,208.54501 L208.739592,206.238214 C209.065302,206.190886 209.346868,205.986316 209.49253,205.691173 L216.592117,191.305838 C216.836539,190.810585 217.436165,190.607246 217.931418,190.851668 C218.128631,190.948998 218.288259,191.108626 218.385589,191.305838 L225.485176,205.691173 C225.630838,205.986316 225.912403,206.190886 226.238113,206.238214 L242.113272,208.54501 C242.659817,208.624427 243.038499,209.13187 242.959081,209.678415 C242.927457,209.896052 242.824969,210.097194 242.667486,210.250703 L231.180113,221.448124 C230.944427,221.677861 230.836878,222.008862 230.892516,222.333256 L233.604317,238.144268 C233.697678,238.688604 233.33209,239.20556 232.787754,239.298921 C232.570996,239.336098 232.348028,239.300784 232.153368,239.198444 L217.954194,231.733497 C217.66287,231.580339 217.314836,231.580339 217.023512,231.733497 Z" id="Star" transform="translate(217.488853, 217.488853) rotate(-360.000000) translate(-217.488853, -217.488853) "></path>
                <path d="M138.534659,264.244644 L124.335485,271.709592 C123.846641,271.966593 123.242013,271.778646 122.985013,271.289801 C122.882673,271.095141 122.847359,270.872173 122.884536,270.655415 L125.596337,254.844403 C125.651974,254.520009 125.544426,254.189009 125.30874,253.959271 L113.821367,242.76185 C113.425883,242.376349 113.417791,241.743236 113.803292,241.347752 C113.956801,241.190269 114.157943,241.087781 114.37558,241.056157 L130.250739,238.749361 C130.576449,238.702033 130.858015,238.497463 131.003677,238.20232 L138.103264,223.816986 C138.347686,223.321732 138.947312,223.118393 139.442566,223.362815 C139.639778,223.460146 139.799406,223.619773 139.896736,223.816986 L146.996323,238.20232 C147.141985,238.497463 147.423551,238.702033 147.749261,238.749361 L163.62442,241.056157 C164.170964,241.135575 164.549646,241.643017 164.470228,242.189562 C164.438604,242.407199 164.336117,242.608342 164.178633,242.76185 L152.69126,253.959271 C152.455574,254.189009 152.348026,254.520009 152.403663,254.844403 L155.115464,270.655415 C155.208825,271.199752 154.843238,271.716708 154.298901,271.810069 C154.082143,271.847245 153.859175,271.811931 153.664515,271.709592 L139.465341,264.244644 C139.174017,264.091486 138.825983,264.091486 138.534659,264.244644 Z" id="Star" transform="translate(139.000000, 250.000000) rotate(-360.000000) translate(-139.000000, -250.000000) "></path>
                <path d="M60.0458062,231.733497 L45.8466324,239.198444 C45.3577878,239.455445 44.7531606,239.267499 44.4961598,238.778654 C44.3938208,238.583994 44.3585061,238.361026 44.3956829,238.144268 L47.1074838,222.333256 C47.1631218,222.008862 47.0555733,221.677861 46.8198872,221.448124 L35.3325143,210.250703 C34.9370307,209.865202 34.9289384,209.232089 35.3144396,208.836605 C35.4679482,208.679121 35.6690906,208.576634 35.8867277,208.54501 L51.7618866,206.238214 C52.0875967,206.190886 52.3691623,205.986316 52.5148243,205.691173 L59.6144112,191.305838 C59.8588335,190.810585 60.4584593,190.607246 60.953713,190.851668 C61.1509256,190.948998 61.3105531,191.108626 61.4078834,191.305838 L68.5074703,205.691173 C68.6531323,205.986316 68.9346979,206.190886 69.260408,206.238214 L85.1355669,208.54501 C85.6821118,208.624427 86.0607932,209.13187 85.9813756,209.678415 C85.9497511,209.896052 85.8472639,210.097194 85.6897803,210.250703 L74.2024074,221.448124 C73.9667213,221.677861 73.8591728,222.008862 73.9148108,222.333256 L76.6266117,238.144268 C76.7199727,238.688604 76.3543848,239.20556 75.8100484,239.298921 C75.5932908,239.336098 75.3703227,239.300784 75.1756622,239.198444 L60.9764884,231.733497 C60.6851644,231.580339 60.3371302,231.580339 60.0458062,231.733497 Z" id="Star"></path>
                <path d="M27.5346589,153.244644 L13.3354851,160.709592 C12.8466405,160.966593 12.2420133,160.778646 11.9850125,160.289801 C11.8826735,160.095141 11.8473588,159.872173 11.8845356,159.655415 L14.5963365,143.844403 C14.6519745,143.520009 14.544426,143.189009 14.3087399,142.959271 L2.82136699,131.76185 C2.42588342,131.376349 2.41779111,130.743236 2.80329232,130.347752 C2.95680093,130.190269 3.15794334,130.087781 3.37558037,130.056157 L19.2507393,127.749361 C19.5764494,127.702033 19.858015,127.497463 20.003677,127.20232 L27.1032639,112.816986 C27.3476862,112.321732 27.9473121,112.118393 28.4425657,112.362815 C28.6397783,112.460146 28.7994058,112.619773 28.8967361,112.816986 L35.996323,127.20232 C36.141985,127.497463 36.4235506,127.702033 36.7492607,127.749361 L52.6244196,130.056157 C53.1709645,130.135575 53.5496459,130.643017 53.4702283,131.189562 C53.4386038,131.407199 53.3361166,131.608342 53.178633,131.76185 L41.6912601,142.959271 C41.455574,143.189009 41.3480255,143.520009 41.4036635,143.844403 L44.1154644,159.655415 C44.2088254,160.199752 43.8432375,160.716708 43.2989011,160.810069 C43.0821435,160.847245 42.8591754,160.811931 42.6645149,160.709592 L28.4653411,153.244644 C28.1740171,153.091486 27.8259829,153.091486 27.5346589,153.244644 Z" id="Star"></path>
                <path d="M60.0458062,74.7557916 L45.8466324,82.220739 C45.3577878,82.4777398 44.7531606,82.2897933 44.4961598,81.8009487 C44.3938208,81.6062882 44.3585061,81.3833202 44.3956829,81.1665625 L47.1074838,65.3555502 C47.1631218,65.0311561 47.0555733,64.7001559 46.8198872,64.4704187 L35.3325143,53.2729976 C34.9370307,52.8874964 34.9289384,52.2543831 35.3144396,51.8588996 C35.4679482,51.7014159 35.6690906,51.5989287 35.8867277,51.5673042 L51.7618866,49.2605086 C52.0875967,49.2131802 52.3691623,49.0086108 52.5148243,48.7134673 L59.6144112,34.328133 C59.8588335,33.8328794 60.4584593,33.6295404 60.953713,33.8739627 C61.1509256,33.9712929 61.3105531,34.1309204 61.4078834,34.328133 L68.5074703,48.7134673 C68.6531323,49.0086108 68.9346979,49.2131802 69.260408,49.2605086 L85.1355669,51.5673042 C85.6821118,51.6467218 86.0607932,52.1541647 85.9813756,52.7007096 C85.9497511,52.9183466 85.8472639,53.119489 85.6897803,53.2729976 L74.2024074,64.4704187 C73.9667213,64.7001559 73.8591728,65.0311561 73.9148108,65.3555502 L76.6266117,81.1665625 C76.7199727,81.710899 76.3543848,82.2278549 75.8100484,82.3212159 C75.5932908,82.3583928 75.3703227,82.3230781 75.1756622,82.220739 L60.9764884,74.7557916 C60.6851644,74.6026335 60.3371302,74.6026335 60.0458062,74.7557916 Z" id="Star" transform="translate(60.511147, 60.511147) rotate(360.000000) translate(-60.511147, -60.511147) "></path>
            </g>
            <g id="Lock" transform="translate(97.000000, 90.853813)">
                <rect id="Rectangle" stroke="#000000" stroke-width="10" x="0" y="39" width="84" height="58" rx="2"></rect>
                <path d="M69.2681293,32.8438395 C69.2681293,14.066158 60.4443673,0 41.842217,0 C23.2400667,0 13,14.0419674 13,32.8438395" id="Path" stroke="#000000" stroke-width="10"></path>
                <line x1="41" y1="70.1461875" x2="41" y2="79.6461875" id="Line" stroke="#000000" stroke-width="10" stroke-linecap="round"></line>
                <circle id="Oval" fill="#000000" cx="41" cy="66.1461875" r="10"></circle>
            </g>
        </g>
    </g>
</svg>